<svg xmlns="http://www.w3.org/2000/svg" xmlns:xlink="http://www.w3.org/1999/xlink" width="500" zoomAndPan="magnify" viewBox="0 0 375 374.999991" height="500" preserveAspectRatio="xMidYMid meet" version="1.0"><defs><clipPath id="4dae8f6a2e"><path d="M 113.25 112.5 L 229 112.5 L 229 262.5 L 113.25 262.5 Z M 113.25 112.5 " clip-rule="nonzero"/></clipPath><clipPath id="d74b0a2a53"><path d="M 154 121 L 261.75 121 L 261.75 254 L 154 254 Z M 154 121 " clip-rule="nonzero"/></clipPath><clipPath id="9b9f403789"><path d="M 150.617188 145.046875 L 224.117188 145.046875 L 224.117188 229.796875 L 150.617188 229.796875 Z M 150.617188 145.046875 " clip-rule="nonzero"/></clipPath></defs><rect x="-37.5" width="450" fill="#ffffff" y="-37.499999" height="449.999989" fill-opacity="1"/><rect x="-37.5" width="450" fill="#ffffff" y="-37.499999" height="449.999989" fill-opacity="1"/><g clip-path="url(#4dae8f6a2e)"><path fill="#ff0000" d="M 188.230469 112.511719 C 203.089844 112.511719 216.933594 116.835938 228.582031 124.289062 C 218.816406 119.238281 207.726562 116.382812 195.96875 116.382812 C 156.6875 116.382812 124.851562 148.21875 124.851562 187.488281 C 124.851562 226.761719 156.6875 258.597656 195.96875 258.597656 C 207.726562 258.597656 218.816406 255.742188 228.582031 250.691406 C 216.933594 258.144531 203.089844 262.46875 188.230469 262.46875 C 146.820312 262.46875 113.25 228.898438 113.25 187.488281 C 113.25 146.082031 146.820312 112.511719 188.230469 112.511719 Z M 188.230469 112.511719 " fill-opacity="1" fill-rule="evenodd"/></g><g clip-path="url(#d74b0a2a53)"><path fill="#a60000" d="M 195.96875 121.738281 C 232.277344 121.738281 261.71875 151.171875 261.71875 187.488281 C 261.71875 223.808594 232.277344 253.242188 195.96875 253.242188 C 180.3125 253.242188 165.933594 247.765625 154.640625 238.636719 C 164.683594 245.589844 176.875 249.675781 190.011719 249.675781 C 224.359375 249.675781 252.199219 221.839844 252.199219 187.488281 C 252.199219 153.140625 224.359375 125.304688 190.011719 125.304688 C 176.875 125.304688 164.683594 129.390625 154.640625 136.34375 C 165.933594 127.214844 180.3125 121.738281 195.96875 121.738281 Z M 195.96875 121.738281 " fill-opacity="1" fill-rule="evenodd"/></g><path fill="#2a688a" d="M 189.09375 171.949219 C 188.976562 171.738281 188.84375 171.519531 188.820312 171.464844 C 188.445312 170.632812 188.195312 169.738281 188.066406 168.835938 C 187.714844 166.371094 188.164062 164.074219 189.105469 161.792969 C 189.390625 161.105469 189.699219 160.429688 190 159.746094 C 190.035156 159.664062 190.1875 159.164062 190.304688 159.15625 C 190.390625 159.152344 190.449219 159.886719 190.457031 159.941406 C 190.574219 160.859375 190.71875 161.777344 190.902344 162.683594 C 191.410156 165.203125 191.855469 167.808594 191.328125 170.363281 C 191.148438 171.234375 190.792969 172.402344 189.953125 172.902344 C 189.4375 177.539062 187.402344 181.730469 186 186.140625 C 186.203125 185.753906 186.414062 185.371094 186.636719 184.996094 C 188.597656 181.679688 191.351562 179.191406 194.78125 177.476562 C 195.523438 177.105469 196.273438 176.753906 197.035156 176.425781 C 197.121094 176.386719 197.660156 176.082031 197.742188 176.175781 C 197.859375 176.308594 197.421875 177.082031 197.367188 177.210938 C 196.878906 178.324219 196.351562 179.421875 195.863281 180.535156 C 194.289062 184.105469 191.457031 186.816406 188.183594 188.839844 C 187.363281 189.34375 186.015625 190.316406 184.933594 190.386719 C 184.214844 194.488281 184.421875 198.597656 185.300781 202.648438 C 185.324219 202.09375 185.355469 201.535156 185.398438 200.980469 C 185.582031 198.640625 185.929688 195.566406 187.402344 193.542969 C 187.285156 193.425781 187.183594 193.285156 187.109375 193.125 C 186.78125 192.40625 187.097656 191.554688 187.816406 191.226562 C 188.535156 190.898438 189.386719 191.214844 189.714844 191.933594 C 190.042969 192.652344 189.726562 193.503906 189.007812 193.832031 C 188.769531 193.941406 188.515625 193.980469 188.269531 193.953125 C 186.792969 195.824219 186.515625 198.8125 186.339844 201.054688 C 186.316406 201.355469 186.292969 201.65625 186.277344 201.957031 C 186.867188 199.046875 187.988281 196.167969 189.847656 193.839844 C 190.101562 193.523438 191.480469 191.574219 192.050781 191.746094 C 192.199219 191.789062 192.015625 192.570312 192.003906 192.679688 C 191.886719 193.707031 191.878906 194.753906 191.882812 195.785156 C 191.902344 199.359375 191.046875 202.390625 188.898438 205.324219 C 188.277344 206.171875 187.289062 206.730469 186.664062 207.539062 C 187.296875 209.503906 187.972656 211.449219 188.617188 213.410156 C 188.703125 213.125 188.789062 212.84375 188.878906 212.5625 C 189.421875 210.871094 190.160156 209.277344 191.210938 207.84375 C 191.238281 207.8125 191.265625 207.78125 191.296875 207.753906 C 191.273438 207.714844 191.253906 207.671875 191.230469 207.628906 C 190.902344 206.910156 191.21875 206.058594 191.9375 205.730469 C 192.65625 205.398438 193.507812 205.714844 193.835938 206.4375 C 194.167969 207.15625 193.851562 208.003906 193.132812 208.335938 C 192.757812 208.503906 192.351562 208.503906 192 208.359375 C 191.988281 208.375 191.980469 208.386719 191.972656 208.402344 C 190.980469 209.753906 190.285156 211.253906 189.777344 212.847656 C 189.597656 213.402344 189.429688 213.960938 189.269531 214.523438 C 189.246094 214.605469 189.261719 214.734375 189.265625 214.855469 C 189.265625 215.015625 189.253906 215.167969 189.222656 215.273438 L 189.21875 215.289062 C 189.800781 217.171875 190.324219 219.074219 190.714844 221.015625 C 190.960938 222.234375 191.125 223.46875 191.289062 224.699219 C 191.316406 224.921875 191.445312 225.363281 191.449219 225.714844 C 191.453125 225.964844 191.394531 226.183594 191.289062 226.339844 C 191.144531 226.554688 190.851562 226.609375 190.636719 226.464844 C 190.429688 226.320312 190.371094 226.042969 190.5 225.832031 C 190.5 225.800781 190.503906 225.609375 190.484375 225.496094 C 190.445312 225.234375 190.375 224.976562 190.355469 224.824219 C 190.191406 223.613281 190.03125 222.398438 189.792969 221.203125 C 189.445312 219.488281 189 217.804688 188.496094 216.140625 C 188.230469 215.929688 187.9375 215.71875 187.914062 215.699219 C 186.671875 214.832031 185.226562 214.183594 183.816406 213.652344 C 180.507812 212.398438 178.164062 210.550781 176.984375 207.117188 C 176.808594 206.59375 176.011719 204.664062 176.378906 204.097656 C 176.40625 204.058594 177.089844 204.597656 177.140625 204.632812 C 178.019531 205.246094 178.886719 205.871094 179.742188 206.519531 C 181.695312 208.003906 183.558594 209.554688 185.421875 211.148438 C 186.167969 211.789062 186.890625 212.363281 187.503906 213.035156 C 186.746094 210.75 185.949219 208.476562 185.246094 206.167969 C 184.480469 203.648438 183.949219 201.097656 183.707031 198.535156 C 183.433594 198.480469 182.953125 198.445312 182.773438 198.390625 C 181.929688 198.121094 181.125 197.746094 180.355469 197.300781 C 177.097656 195.421875 174.792969 192.1875 173.597656 188.664062 C 173.210938 187.519531 172.871094 186.34375 172.65625 185.148438 C 172.625 184.984375 172.421875 184.203125 172.65625 184.085938 C 172.769531 184.027344 173.269531 184.820312 173.332031 184.898438 C 174.027344 185.769531 174.871094 186.488281 175.667969 187.257812 C 178.175781 189.683594 180.71875 192.257812 182.628906 195.214844 C 182.476562 194.601562 182.324219 193.992188 182.152344 193.382812 C 181.378906 190.609375 180.511719 187.964844 178.800781 185.625 C 178.792969 185.621094 178.789062 185.613281 178.785156 185.605469 C 178.105469 185.816406 177.359375 185.496094 177.054688 184.832031 C 176.726562 184.113281 177.042969 183.261719 177.761719 182.933594 C 178.480469 182.605469 179.332031 182.921875 179.660156 183.640625 C 179.878906 184.113281 179.8125 184.644531 179.539062 185.046875 C 179.546875 185.054688 179.550781 185.0625 179.558594 185.070312 C 181.339844 187.5 182.253906 190.246094 183.058594 193.128906 C 183.238281 193.769531 183.402344 194.417969 183.5625 195.066406 C 183.589844 192.808594 183.859375 190.546875 184.414062 188.289062 C 184.847656 186.519531 185.445312 184.804688 186.066406 183.097656 C 186.050781 182.980469 186.042969 182.683594 186.003906 182.566406 C 185.875 182.171875 185.722656 181.785156 185.542969 181.414062 C 185.035156 180.351562 184.375 179.371094 183.714844 178.402344 C 181.550781 175.230469 180.003906 172.339844 179.699219 168.410156 C 179.632812 167.523438 179.605469 166.625 179.691406 165.738281 C 179.703125 165.632812 179.714844 164.945312 179.84375 164.886719 C 179.898438 164.859375 180.445312 165.796875 180.484375 165.855469 C 181.183594 166.882812 181.953125 167.871094 182.703125 168.863281 C 184.4375 171.152344 185.167969 173.710938 185.890625 176.445312 C 186.09375 177.21875 186.292969 177.933594 186.460938 178.632812 C 186.515625 177.90625 186.550781 177.179688 186.546875 176.453125 C 186.53125 173.4375 186.207031 170.449219 185.273438 167.578125 C 184.726562 167.582031 184.207031 167.269531 183.964844 166.742188 C 183.636719 166.023438 183.953125 165.171875 184.671875 164.84375 C 185.390625 164.515625 186.242188 164.832031 186.570312 165.550781 C 186.851562 166.160156 186.664062 166.867188 186.160156 167.265625 C 187.128906 170.238281 187.472656 173.328125 187.488281 176.449219 C 187.492188 177.519531 187.421875 178.585938 187.316406 179.652344 C 188.183594 177.160156 188.914062 174.636719 189.09375 171.949219 Z M 189.09375 171.949219 " fill-opacity="1" fill-rule="evenodd"/><g clip-path="url(#9b9f403789)"><path fill="#2a688a" d="M 193.78125 216.21875 L 180.847656 216.21875 L 180.847656 218.074219 C 180.847656 221.824219 179.910156 224.261719 178.03125 225.367188 C 176.15625 226.648438 173.082031 227.289062 168.8125 227.289062 L 168.8125 229.851562 L 206.328125 229.851562 L 206.328125 227.289062 C 205.304688 227.289062 204.023438 227.203125 202.488281 227.035156 C 201.71875 226.945312 200.953125 226.820312 200.183594 226.648438 C 199.671875 226.5625 199.332031 226.519531 199.160156 226.519531 C 197.28125 226.007812 195.914062 225.070312 195.0625 223.707031 C 194.207031 222.339844 193.78125 220.292969 193.78125 217.558594 Z M 180.847656 158.71875 L 193.78125 158.71875 L 193.78125 150.335938 L 203.898438 150.335938 C 207.3125 150.335938 210.210938 150.804688 212.605469 151.746094 C 214.90625 152.597656 216.53125 153.792969 217.46875 155.328125 C 218.496094 156.953125 219.304688 158.789062 219.902344 160.835938 L 221.308594 166.855469 L 224.386719 166.855469 L 223.617188 145.085938 L 151.273438 145.085938 L 150.632812 166.855469 L 153.578125 166.855469 C 154.515625 161.902344 155.753906 158.316406 157.289062 156.097656 C 158.910156 153.707031 160.875 152.128906 163.179688 151.359375 C 165.742188 150.679688 168.8125 150.335938 172.398438 150.335938 L 180.847656 150.335938 Z M 180.847656 158.71875 " fill-opacity="1" fill-rule="nonzero"/></g></svg>